# Blender v3.3.1 OBJ File: 'hammer.blend'
# www.blender.org
mtllib hammer.mtl
o hammer_Cube
v 0.020222 0.085379 -0.008183
v 0.020222 0.076530 -0.008183
v 0.020222 0.085379 0.008183
v 0.020222 0.076530 0.008183
v -0.020222 0.085379 -0.008183
v -0.020222 0.076530 -0.008183
v -0.020222 0.085379 0.008183
v -0.020222 0.076530 0.008183
v 0.011946 0.088728 -0.008183
v 0.011946 0.089137 -0.007774
v 0.019211 0.089137 -0.004834
v 0.020222 0.088728 -0.004834
v 0.011946 0.072772 -0.007774
v 0.011946 0.073181 -0.008183
v 0.020222 0.073181 -0.004834
v 0.019211 0.072772 -0.004834
v 0.020222 0.088728 0.004834
v 0.019211 0.089137 0.004834
v 0.011946 0.089137 0.007774
v 0.011946 0.088728 0.008183
v 0.011946 0.073181 0.008183
v 0.011946 0.072772 0.007774
v 0.019211 0.072772 0.004834
v 0.020222 0.073181 0.004834
v -0.020222 0.088728 -0.004834
v -0.019211 0.089137 -0.004834
v -0.011946 0.089137 -0.007774
v -0.011946 0.088728 -0.008183
v -0.011946 0.073181 -0.008183
v -0.011946 0.072772 -0.007774
v -0.019211 0.072772 -0.004834
v -0.020222 0.073181 -0.004834
v -0.011946 0.088728 0.008183
v -0.011946 0.089137 0.007774
v -0.019211 0.089137 0.004834
v -0.020222 0.088728 0.004834
v -0.011946 0.072772 0.007774
v -0.011946 0.073181 0.008183
v -0.020222 0.073181 0.004834
v -0.019211 0.072772 0.004834
v 0.000000 0.000037 -0.004501
v -0.004839 0.000037 -0.003183
v -0.006844 0.000037 0.000000
v -0.004839 0.000037 0.003183
v 0.000000 0.000037 0.004501
v 0.004839 0.000037 0.003183
v 0.006844 0.000037 0.000000
v 0.004839 0.000037 -0.003183
v 0.000000 0.074548 -0.004501
v -0.004839 0.074548 -0.003183
v -0.006844 0.074548 0.000000
v -0.004839 0.074548 0.003183
v 0.000000 0.074548 0.004501
v 0.004839 0.074548 0.003183
v 0.006844 0.074548 0.000000
v 0.004839 0.074548 -0.003183
v -0.020222 0.076530 -0.008183
v -0.020222 0.085379 -0.008183
v 0.020222 0.085379 -0.008183
v 0.020222 0.076530 -0.008183
v 0.020222 0.085379 0.008183
v 0.020222 0.076530 0.008183
v -0.020222 0.085379 0.008183
v -0.020222 0.076530 0.008183
v 0.020222 0.073181 -0.004834
v 0.020222 0.073181 0.004834
v 0.020222 0.088728 0.004834
v 0.020222 0.088728 -0.004834
v -0.020222 0.088728 -0.004834
v -0.020222 0.088728 0.004834
v -0.020222 0.073181 0.004834
v -0.020222 0.073181 -0.004834
vt 0.337173 0.979025
vt 0.337173 0.979025
vt 0.337173 0.953846
vt 0.337173 0.953846
vt 0.033110 0.887317
vt 0.033110 0.887317
vt 0.033110 0.862139
vt 0.033110 0.862139
vt 0.337173 0.887317
vt 0.337173 0.887317
vt 0.337173 0.862139
vt 0.337173 0.862139
vt 0.775511 0.842258
vt 0.802758 0.869505
vt 0.802758 0.941498
vt 0.775511 0.968745
vt 0.696860 0.968745
vt 0.669614 0.941498
vt 0.669614 0.869505
vt 0.696860 0.842258
vt 0.337173 0.862139
vt 0.337173 0.887317
vt 0.337173 0.887317
vt 0.337173 0.862139
vt 0.556051 0.546488
vt 0.585657 0.619693
vt 0.585657 0.860418
vt 0.556051 0.933623
vt 0.458696 0.933623
vt 0.429090 0.860418
vt 0.429090 0.619693
vt 0.458696 0.546488
vt 0.407730 0.141709
vt 0.339389 0.169363
vt 0.114657 0.169363
vt 0.046316 0.141709
vt 0.046316 0.050773
vt 0.114657 0.023118
vt 0.339389 0.023118
vt 0.407730 0.050773
vt 0.033110 0.953846
vt 0.033110 0.979025
vt 0.033110 0.979025
vt 0.033110 0.953846
vt 0.696860 0.842258
vt 0.669614 0.869505
vt 0.669614 0.941498
vt 0.696860 0.968745
vt 0.775511 0.968745
vt 0.802758 0.941498
vt 0.802758 0.869505
vt 0.775511 0.842258
vt 0.033110 0.953846
vt 0.033110 0.953846
vt 0.033110 0.979025
vt 0.033110 0.979025
vt 0.033110 0.862139
vt 0.033110 0.887317
vt 0.033110 0.887317
vt 0.033110 0.862139
vt 0.337173 0.953846
vt 0.337173 0.979025
vt 0.337173 0.979025
vt 0.337173 0.953846
vt 0.339389 0.173212
vt 0.114657 0.173212
vt 0.589777 0.619693
vt 0.589777 0.860418
vt 0.554358 0.537373
vt 0.453319 0.537373
vt 0.453319 0.537373
vt 0.554358 0.537373
vt 0.554358 0.960070
vt 0.453319 0.960070
vt 0.453319 0.960070
vt 0.554358 0.960070
vt 0.424970 0.860418
vt 0.424970 0.619693
vt 0.114657 0.019270
vt 0.339389 0.019270
vt 0.549301 0.326538
vt 0.566900 0.391135
vt 0.549301 0.455732
vt 0.506814 0.482489
vt 0.464326 0.455732
vt 0.446727 0.391135
vt 0.464326 0.326538
vt 0.506814 0.299781
vt 0.095333 0.862138
vt 0.095333 0.859062
vt 0.040711 0.859062
vt 0.556051 0.536301
vt 0.589777 0.536301
vt 0.095333 0.979025
vt 0.274950 0.979025
vt 0.274950 0.862138
vt 0.274950 0.862139
vt 0.274950 0.859062
vt 0.329571 0.859062
vt 0.424970 0.943811
vt 0.458696 0.943811
vt 0.274950 0.979025
vt 0.095333 0.979025
vt 0.095333 0.862139
vt 0.274950 0.859062
vt 0.329571 0.859062
vt 0.036805 0.141709
vt 0.036805 0.050773
vt 0.458696 0.536301
vt 0.424970 0.536301
vt 0.589777 0.943811
vt 0.556051 0.943811
vt 0.095333 0.859062
vt 0.040711 0.859062
vt 0.417241 0.050773
vt 0.417241 0.141709
vt 0.182212 0.234115
vt 0.182212 0.846542
vt 0.217388 0.846542
vt 0.217388 0.234115
vt 0.739034 0.251223
vt 0.739034 0.826239
vt 0.714470 0.826239
vt 0.714470 0.251223
vt 0.182212 0.234115
vt 0.182212 0.846542
vt 0.147035 0.846542
vt 0.147035 0.234115
vt 0.739034 0.251223
vt 0.739034 0.826239
vt 0.763597 0.826239
vt 0.763597 0.251223
vt 0.763597 0.251223
vt 0.763597 0.826239
vt 0.217388 0.234115
vt 0.217388 0.846542
vt 0.714470 0.251223
vt 0.714470 0.826239
vt 0.147035 0.234115
vt 0.147035 0.846542
vn 0.0000 0.0000 1.0000
vn 1.0000 0.0000 0.0000
vn 0.0000 1.0000 0.0000
vn 0.0000 -1.0000 0.0000
vn -1.0000 -0.0000 0.0000
vn 0.0000 -0.7071 -0.7071
vn 0.0000 0.7071 -0.7071
vn 0.0000 0.7071 0.7071
vn 0.0000 -0.7071 0.7071
vn -0.2751 -0.6798 -0.6798
vn 0.2751 0.6798 -0.6798
vn -0.0000 0.0000 -1.0000
vn 0.2751 -0.6798 0.6798
vn -0.2751 0.6798 0.6798
vn 0.2751 -0.6798 -0.6798
vn 0.3751 -0.9270 0.0000
vn 0.2751 0.6798 0.6798
vn 0.3751 0.9270 0.0000
vn -0.2751 0.6798 -0.6798
vn -0.3751 0.9270 0.0000
vn -0.2751 -0.6798 0.6798
vn -0.3751 -0.9270 0.0000
vn 0.0000 -0.6525 -0.7578
vn 0.5951 0.0000 -0.8037
vn 0.4603 -0.6338 -0.6216
vn 0.7966 -0.6046 0.0000
vn 0.5951 0.0000 0.8037
vn 0.4603 -0.6338 0.6216
vn 0.0000 -0.6525 0.7578
vn -0.5951 0.0000 0.8037
vn -0.4603 -0.6338 0.6216
vn -0.7966 -0.6046 0.0000
vn -0.5951 0.0000 -0.8037
vn -0.4603 -0.6338 -0.6216
usemtl Material
s off
f 17/1/1 67/2/1 61/3/1 3/4/1
f 6/5/1 57/6/1 72/7/1 32/8/1
f 4/9/1 62/10/1 66/11/1 24/12/1
f 15/13/2 2/14/2 1/15/2 12/16/2 17/17/2 3/18/2 4/19/2 24/20/2
f 65/21/1 60/22/1 2/23/1 15/24/1
f 11/25/3 10/26/3 27/27/3 26/28/3 35/29/3 34/30/3 19/31/3 18/32/3
f 31/33/4 30/34/4 13/35/4 16/36/4 23/37/4 22/38/4 37/39/4 40/40/4
f 62/10/1 4/9/1 3/4/1 61/3/1
f 5/41/1 25/42/1 69/43/1 58/44/1
f 39/45/5 8/46/5 7/47/5 36/48/5 25/49/5 5/50/5 6/51/5 32/52/5
f 7/53/1 63/54/1 70/55/1 36/56/1
f 71/57/1 64/58/1 8/59/1 39/60/1
f 59/61/1 68/62/1 12/63/1 1/64/1
f 13/35/6 30/34/6 29/65/6 14/66/6
f 27/27/7 10/26/7 9/67/7 28/68/7
f 66/11/1 65/21/1 15/24/1 24/12/1
f 68/69/1 67/70/1 17/71/1 12/72/1
f 25/73/1 36/74/1 70/75/1 69/76/1
f 33/77/8 20/78/8 19/31/8 34/30/8
f 39/60/1 32/8/1 72/7/1 71/57/1
f 21/79/9 38/80/9 37/39/9 22/38/9
f 57/6/1 6/5/1 5/41/1 58/44/1
f 42/81/4 41/82/4 48/83/4 47/84/4 46/85/4 45/86/4 44/87/4 43/88/4
f 57/6/10 29/89/10 30/90/10 31/91/10 72/7/10
f 60/22/1 59/61/1 1/64/1 2/23/1
f 9/67/11 10/26/11 11/25/11 68/92/11 59/93/11
f 29/89/12 57/6/12 58/44/12 28/94/12 9/95/12 59/61/12 60/22/12 14/96/12
f 64/58/1 63/54/1 7/53/1 8/59/1
f 62/10/13 21/97/13 22/98/13 23/99/13 66/11/13
f 63/100/14 33/77/14 34/30/14 35/29/14 70/101/14
f 21/97/1 62/10/1 61/3/1 20/102/1 33/103/1 63/54/1 64/58/1 38/104/1
f 13/105/15 14/96/15 60/22/15 65/21/15 16/106/15
f 23/37/16 16/36/16 65/107/16 66/108/16
f 67/109/17 18/32/17 19/31/17 20/78/17 61/110/17
f 11/25/18 18/32/18 67/109/18 68/92/18
f 58/111/19 69/112/19 26/28/19 27/27/19 28/68/19
f 69/112/20 70/101/20 35/29/20 26/28/20
f 37/113/21 38/104/21 64/58/21 71/57/21 40/114/21
f 71/115/22 72/116/22 31/33/22 40/40/22
s 1
f 41/117/23 49/118/12 56/119/24 48/120/25
f 47/121/26 55/122/2 54/123/27 46/124/28
f 45/125/29 53/126/1 52/127/30 44/128/31
f 43/129/32 51/130/5 50/131/33 42/132/34
f 48/133/25 56/134/24 55/122/2 47/121/26
f 46/135/28 54/136/27 53/126/1 45/125/29
f 44/137/31 52/138/30 51/130/5 43/129/32
f 42/139/34 50/140/33 49/118/12 41/117/23
