# Blender v3.3.1 OBJ File: 'Casa01.blend'
# www.blender.org
mtllib Monitor001.mtl
o Monitor001_Cube.001
v -1.775835 -0.000634 2.409372
v -1.775835 3.393094 2.409372
v -1.775835 -0.000634 -2.409372
v -1.775835 3.393094 -2.409372
v 1.775835 -0.000634 2.409372
v 1.775835 3.393094 2.409372
v 1.775835 -0.000634 -2.409372
v 1.775835 3.393094 -2.409372
vt 0.273609 0.513145
vt 0.498899 0.513145
vt 0.498899 0.854579
vt 0.273609 0.854579
vt 0.479503 0.069693
vt 0.479503 0.431160
vt 0.086426 0.431160
vt 0.086426 0.069693
vt 0.949479 0.854579
vt 0.724189 0.854579
vt 0.724189 0.513145
vt 0.949479 0.513145
vt 0.724189 0.326497
vt 0.498899 0.326497
vt 0.795982 0.163658
vt 0.892289 0.163658
vt 0.892289 0.259965
vt 0.795982 0.259965
vn -1.0000 0.0000 0.0000
vn 0.0000 0.0000 -1.0000
vn 1.0000 0.0000 0.0000
vn 0.0000 0.0000 1.0000
vn 0.0000 -1.0000 0.0000
vn 0.0000 1.0000 0.0000
usemtl ON/Window
s off
f 1/1/1 2/2/1 4/3/1 3/4/1
f 3/5/2 4/6/2 8/7/2 7/8/2
f 7/9/3 8/10/3 6/11/3 5/12/3
f 5/13/4 6/11/4 2/2/4 1/14/4
f 3/15/5 7/16/5 5/17/5 1/18/5
f 8/10/6 4/3/6 2/2/6 6/11/6
