# Blender 3.6.2
# www.blender.org
mtllib locker-game-ready.mtl
o Cube.003
v 0.250000 2.000000 -0.300000
v 0.250000 0.000000 -0.300000
v 0.230000 1.980000 0.300000
v 0.230000 0.020000 0.300000
v -0.250000 2.000000 -0.300000
v -0.250000 0.000000 -0.300000
v -0.230000 1.980000 0.300000
v -0.230000 0.020000 0.300000
v -0.250000 0.000000 0.300000
v -0.250000 2.000000 0.300000
v 0.250000 2.000000 0.300000
v 0.250000 0.000000 0.300000
vn -0.0000 1.0000 -0.0000
vn -1.0000 -0.0000 -0.0000
vn -0.0000 -1.0000 -0.0000
vn 1.0000 -0.0000 -0.0000
vn -0.0000 -0.0000 -1.0000
vn -0.0000 -0.0000 1.0000
vt 0.333333 0.333333
vt 0.000000 0.333333
vt 0.000000 0.000000
vt 0.333333 0.000000
vt 0.000000 0.666667
vt 0.333333 0.666667
vt 0.666667 -0.000000
vt 0.666667 0.333333
vt 0.333333 0.000000
vt 0.666667 0.666667
vt 0.333333 0.333333
vt 0.000000 1.000000
vt 0.333333 1.000000
vt 0.912437 0.007108
vt 0.912437 0.624508
vt 0.902437 0.630808
vt 0.902437 0.000808
vt 0.346667 0.670000
vt 0.346667 0.996667
vt 0.653333 0.670000
vt 0.653333 0.996667
vt 0.666667 1.000000
s 0
usemtl Material.002
f 1/1/1 5/2/1 10/3/1 11/4/1
f 9/5/2 10/2/2 5/1/2 6/6/2
f 6/7/3 2/8/3 12/1/3 9/9/3
f 2/10/4 1/6/4 11/11/4 12/8/4
f 6/12/5 5/5/5 1/6/5 2/13/5
f 8/14/6 7/15/6 10/16/6 9/17/6
f 3/18/6 4/19/6 12/13/6 11/6/6
f 7/20/6 3/18/6 11/6/6 10/10/6
f 4/19/6 8/21/6 9/22/6 12/13/6
o Cube.004
v -0.227740 1.326320 0.270000
v -0.227740 1.979000 0.270000
v 0.229500 0.673640 0.270000
v 0.229500 0.020960 0.270000
v 0.229500 1.979000 0.270000
v -0.227740 0.020960 0.270000
v -0.227740 0.673640 0.270000
v 0.229500 1.326320 0.270000
v -0.227740 1.979000 0.300000
v 0.229500 1.979000 0.300000
v 0.229500 1.326320 0.300000
v -0.227740 1.326320 0.300000
v 0.229500 0.020960 0.300000
v -0.227740 0.020960 0.300000
v -0.227740 0.673640 0.300000
v 0.229500 0.673640 0.300000
v -0.185000 0.950000 0.300000
v -0.185000 1.050000 0.300000
v -0.115000 1.050000 0.300000
v -0.115000 0.950000 0.300000
vn -0.0000 1.0000 -0.0000
vn -0.0000 -0.0000 1.0000
vn -0.0000 -1.0000 -0.0000
vn 1.0000 -0.0000 -0.0000
vn -1.0000 -0.0000 -0.0000
vt 0.937437 0.630808
vt 0.949937 0.630808
vt 0.949937 0.051208
vt 0.937437 0.051208
vt 0.700072 0.791145
vt 0.669507 0.640953
vt 0.669507 0.995714
vt 0.700072 0.845500
vt 0.750131 0.791145
vt 0.996493 0.640953
vt 0.962437 0.051208
vt 0.949937 0.051208
vt 0.962437 0.630808
vt 0.912437 0.219208
vt 0.912437 0.425008
vt 0.924937 0.425008
vt 0.924937 0.219208
vt 0.912437 0.630808
vt 0.924937 0.630808
vt 0.924937 0.219208
vt 0.937437 0.425008
vt 0.937437 0.219208
vt 0.902438 0.625558
vt 0.902438 0.316858
vt 0.672437 0.316858
vt 0.672437 0.625558
vt 0.902437 0.004483
vt 0.672437 0.004483
vt 0.672437 0.313183
vt 0.902437 0.313183
vt 0.924937 0.013408
vt 0.937437 0.013408
vt 0.912437 0.013408
vt 0.996493 0.995714
vt 0.750131 0.845500
s 0
usemtl Material.002
f 22/23/7 17/24/7 14/25/7 21/26/7
f 30/27/8 24/28/8 27/29/8 29/30/8
f 31/31/8 23/32/8 24/28/8 30/27/8
f 26/33/9 18/34/9 16/24/9 25/35/9
f 15/36/10 20/37/10 23/38/10 28/39/10
f 23/38/10 20/37/10 17/40/10 22/41/10
f 27/42/11 24/38/11 13/43/11 19/44/11
f 21/45/8 24/46/8 23/47/8 22/48/8
f 24/38/11 21/41/11 14/23/11 13/43/11
f 26/49/8 25/50/8 28/51/8 27/52/8
f 26/53/11 27/42/11 19/44/11 18/54/11
f 28/39/10 25/53/10 16/55/10 15/36/10
f 29/30/8 27/29/8 28/56/8 32/57/8
f 32/57/8 28/56/8 23/32/8 31/31/8
f 29/30/8 32/57/8 31/31/8 30/27/8
