# Blender v2.82 (sub 7) OBJ File: ''
# www.blender.org
mtllib caixa.mtl
o Cube_Cube.001
v -0.996900 -0.722441 1.015139
v -0.990243 0.729873 1.020294
v -1.000000 -0.747335 -1.000000
v -0.989279 0.776754 -1.021994
v 1.000000 -0.747335 1.000000
v 1.000000 0.747335 1.000000
v 1.000000 -0.747335 -1.000000
v 1.000000 0.747335 -1.000000
v -1.000000 -0.004711 1.000000
v -0.951489 0.035431 -1.022875
v 1.000000 -0.004711 -1.000000
v 0.959753 0.072602 0.988195
v -0.999262 -0.741409 -0.520326
v -0.998487 -0.735185 -0.016541
v -0.997712 -0.728962 0.487244
v -0.956051 0.742154 0.485287
v -0.989750 0.731025 -0.025285
v -0.989509 0.765595 -0.535857
v 1.000000 -0.747335 0.476071
v 1.000000 -0.747335 -0.023929
v 1.000000 -0.747335 -0.523929
v 1.000000 0.682013 -0.523929
v 1.000000 0.724485 -0.023929
v 1.000000 0.747335 0.476071
v 0.990420 0.013692 -0.526739
v 0.980358 0.033020 -0.029691
v 0.970296 0.052349 0.467358
v -1.001943 0.005805 0.485335
v -1.003798 0.015840 -0.005823
v -1.005652 0.025876 -0.496982
vt 0.738835 0.571069
vt 0.612276 0.572103
vt 0.612432 0.512876
vt 0.738213 0.511563
vt 0.484447 0.250000
vt 0.610235 0.250000
vt 0.610235 0.500000
vt 0.484447 0.500000
vt 0.260482 0.696910
vt 0.386270 0.696910
vt 0.386270 0.762402
vt 0.260482 0.762402
vt 0.390626 0.873077
vt 0.392351 0.747301
vt 0.642327 0.750729
vt 0.640602 0.876505
vt 0.098497 0.684509
vt 0.249159 0.684509
vt 0.249159 0.750000
vt 0.098497 0.750000
vt 0.361467 0.696813
vt 0.612929 0.697097
vt 0.611467 0.762304
vt 0.361467 0.762304
vt 0.388923 0.997277
vt 0.638899 1.000705
vt 0.136270 0.696910
vt 0.136270 0.762402
vt 0.360235 0.250000
vt 0.360235 0.500000
vt 0.863040 0.569772
vt 0.862419 0.510267
vt 0.865028 0.760253
vt 0.740823 0.761550
vt 0.740139 0.696062
vt 0.864344 0.694766
vt 0.739487 0.633566
vt 0.863692 0.632269
vt 0.136270 0.512402
vt 0.260482 0.512402
vt 0.260482 0.571910
vt 0.136270 0.571910
vt 0.260482 0.634410
vt 0.136270 0.634410
vt 0.361467 0.512304
vt 0.611467 0.512304
vt 0.361467 0.571813
vt 0.612603 0.634600
vt 0.361467 0.634313
vt 0.098497 0.500000
vt 0.249159 0.500000
vt 0.249159 0.559509
vt 0.098497 0.559509
vt 0.249159 0.622009
vt 0.098497 0.622009
vt 0.386270 0.512402
vt 0.386270 0.571910
vt 0.386270 0.634410
vt 0.615042 0.762863
vn -0.9984 -0.0160 -0.0540
vn 0.0114 0.0009 -0.9999
vn 0.9986 -0.0512 0.0111
vn 0.0087 -0.0231 0.9997
vn -0.0108 -0.9999 0.0062
vn -0.0057 0.9999 0.0114
vn 0.0066 0.0177 0.9998
vn 0.9990 0.0433 0.0092
vn 0.0056 -0.0152 -0.9999
vn -0.9982 0.0271 -0.0529
vn -1.0000 -0.0050 0.0026
vn -1.0000 -0.0064 0.0026
vn -1.0000 -0.0078 0.0026
vn 0.9999 0.0064 0.0100
vn 0.9998 0.0190 0.0097
vn 0.9995 0.0313 0.0095
vn 0.0276 0.9965 0.0792
vn 0.0227 0.9997 -0.0078
vn 0.0003 0.9994 -0.0336
vn -0.0015 -1.0000 0.0062
vn -0.0045 -1.0000 0.0062
vn -0.0076 -1.0000 0.0062
vn 0.9999 -0.0068 0.0098
vn 0.9997 -0.0216 0.0114
vn 0.9993 -0.0357 0.0116
vn -0.9988 0.0382 -0.0299
vn -0.9985 0.0417 0.0354
vn -0.9998 0.0208 0.0025
usemtl Material.001
s off
f 30/1/1 18/2/1 4/3/1 10/4/1
f 10/5/2 4/6/2 8/7/2 11/8/2
f 27/9/3 24/10/3 6/11/3 12/12/3
f 12/13/4 6/14/4 2/15/4 9/16/4
f 15/17/5 19/18/5 5/19/5 1/20/5
f 24/21/6 16/22/6 2/23/6 6/24/6
f 5/25/7 12/13/7 9/16/7 1/26/7
f 19/27/8 27/9/8 12/12/8 5/28/8
f 3/29/9 10/5/9 11/8/9 7/30/9
f 13/31/10 30/1/10 10/4/10 3/32/10
f 1/33/11 9/34/11 28/35/11 15/36/11
f 15/36/12 28/35/12 29/37/12 14/38/12
f 14/38/13 29/37/13 30/1/13 13/31/13
f 7/39/14 11/40/14 25/41/14 21/42/14
f 21/42/15 25/41/15 26/43/15 20/44/15
f 20/44/16 26/43/16 27/9/16 19/27/16
f 8/45/17 4/46/17 18/2/17 22/47/17
f 22/47/18 18/2/18 17/48/18 23/49/18
f 23/49/19 17/48/19 16/22/19 24/21/19
f 3/50/20 7/51/20 21/52/20 13/53/20
f 13/53/21 21/52/21 20/54/21 14/55/21
f 14/55/22 20/54/22 19/18/22 15/17/22
f 11/40/23 8/56/23 22/57/23 25/41/23
f 25/41/24 22/57/24 23/58/24 26/43/24
f 26/43/25 23/58/25 24/10/25 27/9/25
f 9/34/26 2/59/26 16/22/26 28/35/26
f 28/35/27 16/22/27 17/48/27 29/37/27
f 29/37/28 17/48/28 18/2/28 30/1/28
