# Blender v3.3.1 OBJ File: 'Casa01.blend'
# www.blender.org
mtllib ComputerCase.mtl
o Case_Cube.018
v -6.559003 -0.324126 4.899718
v -6.559003 4.966364 4.899718
v -6.559003 -0.324126 -0.861830
v -6.559003 4.966364 -0.861830
v -3.960145 -0.324126 4.899718
v -3.960145 4.966364 4.899718
v -3.960145 -0.324126 -0.861830
v -3.960145 4.966364 -0.861830
vt 0.015747 0.979980
vt 0.015747 0.521277
vt 0.515292 0.521277
vt 0.515292 0.979980
vt 0.249823 0.030951
vt 0.249823 0.489654
vt 0.024493 0.489654
vt 0.024493 0.030951
vt 0.515292 0.979980
vt 0.515292 0.521277
vt 0.015747 0.521277
vt 0.015747 0.979980
vt 0.498177 0.030951
vt 0.498177 0.489655
vt 0.272847 0.489654
vt 0.272848 0.030951
vt 0.988546 0.990472
vt 0.763216 0.990472
vt 0.763216 0.490926
vt 0.988546 0.490926
vt 0.755786 0.990472
vt 0.530456 0.990472
vt 0.530456 0.490926
vt 0.755786 0.490926
vn -1.0000 0.0000 0.0000
vn 0.0000 0.0000 -1.0000
vn 1.0000 0.0000 0.0000
vn 0.0000 0.0000 1.0000
vn 0.0000 -1.0000 0.0000
vn 0.0000 1.0000 0.0000
usemtl Case_Texture
s off
f 1/1/1 2/2/1 4/3/1 3/4/1
f 3/5/2 4/6/2 8/7/2 7/8/2
f 7/9/3 8/10/3 6/11/3 5/12/3
f 5/13/4 6/14/4 2/15/4 1/16/4
f 3/17/5 7/18/5 5/19/5 1/20/5
f 8/21/6 4/22/6 2/23/6 6/24/6
