# Blender v3.3.1 OBJ File: 'Casa01.blend'
# www.blender.org
mtllib Monitor_OFF.mtl
o MonitorOff_CRTMonitor.001
v -2.127926 0.684790 -0.119198
v -2.127926 4.873105 0.635982
v -2.127926 0.952026 -1.601319
v -2.127926 5.140342 -0.846139
v 2.127926 0.684790 -0.119198
v 2.127926 4.873105 0.635982
v 2.127926 0.952026 -1.601319
v 2.127926 5.140342 -0.846139
v -1.556265 0.200692 2.565663
v -1.556265 3.065102 3.082134
v 1.556265 3.065102 3.082134
v 1.556265 0.200692 2.565663
v -1.000000 -0.000042 1.000000
v -1.000000 0.225584 1.000000
v -1.000000 -0.000042 -1.000000
v -1.000000 0.225584 -1.000000
v 1.000000 -0.000042 1.000000
v 1.000000 0.225584 1.000000
v 1.000000 -0.000042 -1.000000
v 1.000000 0.225584 -1.000000
v 0.425142 -0.000042 -1.275424
v -0.425140 -0.000042 -1.275424
v -0.425140 0.225584 -1.275424
v 0.425142 0.225584 -1.275424
v -0.425140 -0.000042 1.275424
v 0.425142 -0.000042 1.275424
v 0.425142 0.225584 1.275424
v -0.425140 0.225584 1.275424
v -1.275423 -0.000042 -0.425141
v -1.275423 -0.000042 0.425141
v -1.275423 0.225584 0.425141
v -1.275423 0.225584 -0.425141
v 1.275425 -0.000042 0.425141
v 1.275425 -0.000042 -0.425141
v 1.275425 0.225584 -0.425141
v 1.275425 0.225584 0.425141
v 0.333333 0.225584 -0.333333
v 0.333333 0.225584 0.333333
v -0.333333 0.225584 -0.333333
v -0.333333 0.225584 0.333333
v 0.236986 0.706028 -0.236986
v 0.236986 0.620568 0.236986
v -0.236986 0.706028 -0.236986
v -0.236986 0.620568 0.236986
vt 0.325108 0.734886
vt 0.032835 0.734886
vt 0.032835 0.653619
vt 0.325108 0.653619
vt 0.492694 0.176026
vt 0.492694 0.598364
vt 0.070356 0.598364
vt 0.070356 0.176026
vt 0.364625 0.653619
vt 0.656897 0.653619
vt 0.656897 0.734886
vt 0.364625 0.734886
vt 0.706480 0.686140
vt 0.946505 0.686140
vt 0.914264 0.871575
vt 0.738721 0.871575
vt 0.566212 0.264114
vt 0.630539 0.264114
vt 0.630539 0.328441
vt 0.566212 0.328441
vt 0.706480 0.613819
vt 0.946505 0.613819
vt 0.915820 0.216457
vt 0.915820 0.400253
vt 0.719272 0.400253
vt 0.719272 0.216457
vt 0.564511 0.941359
vt 0.364625 0.941359
vt 0.325108 0.941359
vt 0.125221 0.941359
vt 0.621898 0.444969
vt 0.574852 0.444969
vt 0.611519 0.165479
vt 0.595229 0.112916
vt 0.599086 0.110592
vt 0.636710 0.150463
vt 0.653102 0.082779
vt 0.600341 0.099576
vt 0.597535 0.095396
vt 0.637739 0.057640
vt 0.570356 0.041169
vt 0.586907 0.093826
vt 0.582760 0.096209
vt 0.545203 0.056437
vt 0.529429 0.123973
vt 0.581942 0.106923
vt 0.584792 0.111171
vt 0.544751 0.148808
vt 0.757839 0.596873
vt 0.715139 0.592711
vt 0.727623 0.566656
vt 0.753678 0.554173
vt 0.830755 0.592711
vt 0.788055 0.596873
vt 0.792216 0.554173
vt 0.818271 0.566656
vt 0.581106 0.100727
vt 0.529010 0.081989
vt 0.601061 0.105961
vt 0.653102 0.125068
vt 0.792216 0.669788
vt 0.753678 0.669788
vt 0.757839 0.627089
vt 0.788055 0.627089
vt 0.895282 0.970484
vt 0.875240 0.970332
vt 0.889741 0.952493
vt 0.903989 0.952602
vt 0.818271 0.657305
vt 0.830755 0.631250
vt 0.727623 0.657305
vt 0.715139 0.631250
vt 0.907961 0.669788
vt 0.869423 0.669788
vt 0.843368 0.657305
vt 0.830884 0.631250
vt 0.830884 0.592711
vt 0.843368 0.566656
vt 0.869423 0.554173
vt 0.907961 0.554173
vt 0.934016 0.566656
vt 0.946500 0.592711
vt 0.946499 0.631250
vt 0.934016 0.657305
vt 0.593170 0.093362
vt 0.612460 0.041314
vt 0.589095 0.113242
vt 0.569758 0.165025
vt 0.932549 0.952656
vt 0.918265 0.952656
vt 0.918265 0.938320
vt 0.932549 0.938320
vt 0.915361 0.970561
vt 0.855261 0.970103
vt 0.875536 0.952331
vt 0.935452 0.970561
vn -1.0000 0.0000 0.0000
vn 0.0000 0.1774 -0.9841
vn 1.0000 0.0000 0.0000
vn 0.0000 0.8042 0.5944
vn 0.0000 -0.9841 -0.1774
vn 0.0000 0.9841 0.1774
vn 0.0000 -0.1774 0.9841
vn 0.9787 -0.0364 0.2018
vn -0.9787 -0.0364 0.2018
vn -0.9018 0.0000 -0.4321
vn 0.4321 0.0000 -0.9018
vn 0.9018 0.0000 0.4321
vn -0.4321 0.0000 0.9018
vn 0.0000 1.0000 0.0000
vn 0.4321 0.0000 0.9018
vn 0.0000 0.0000 1.0000
vn -0.4321 0.0000 -0.9018
vn 0.0000 0.0000 -1.0000
vn 0.0000 0.2370 0.9715
vn 0.0000 -1.0000 -0.0000
vn 0.9018 0.0000 -0.4321
vn -0.9018 0.0000 0.4321
vn -0.9765 0.2149 0.0161
vn 0.9765 0.2149 0.0161
vn 0.0000 0.1966 -0.9805
usemtl MonitorOff
s off
f 1/1/1 2/2/1 4/3/1 3/4/1
f 3/5/2 4/6/2 8/7/2 7/8/2
f 7/9/3 8/10/3 6/11/3 5/12/3
f 6/13/4 2/14/4 10/15/4 11/16/4
f 3/17/5 7/18/5 5/19/5 1/20/5
f 8/21/6 4/22/6 2/14/6 6/13/6
f 12/23/7 11/24/7 10/25/7 9/26/7
f 5/12/8 6/11/8 11/27/8 12/28/8
f 2/2/9 1/1/9 9/29/9 10/30/9
f 1/20/5 5/19/5 12/31/5 9/32/5
f 29/33/10 32/34/10 16/35/10 15/36/10
f 21/37/11 24/38/11 20/39/11 19/40/11
f 33/41/12 36/42/12 18/43/12 17/44/12
f 25/45/13 28/46/13 14/47/13 13/48/13
f 40/49/14 31/50/14 14/51/14 28/52/14
f 36/53/14 38/54/14 27/55/14 18/56/14
f 38/54/14 40/49/14 28/52/14 27/55/14
f 17/44/15 18/43/15 27/57/15 26/58/15
f 26/58/16 27/57/16 28/46/16 25/45/16
f 15/36/17 16/35/17 23/59/17 22/60/17
f 22/60/18 23/59/18 24/38/18 21/37/18
f 24/61/14 23/62/14 39/63/14 37/64/14
f 40/65/19 38/66/19 42/67/19 44/68/19
f 20/69/14 24/61/14 37/64/14 35/70/14
f 35/70/14 37/64/14 38/54/14 36/53/14
f 23/62/14 16/71/14 32/72/14 39/63/14
f 39/63/14 32/72/14 31/50/14 40/49/14
f 26/73/20 25/74/20 13/75/20 30/76/20 29/77/20 15/78/20 22/79/20 21/80/20 19/81/20 34/82/20 33/83/20 17/84/20
f 19/40/21 20/39/21 35/85/21 34/86/21
f 34/86/3 35/85/3 36/42/3 33/41/3
f 13/48/22 14/47/22 31/87/22 30/88/22
f 30/88/1 31/87/1 32/34/1 29/33/1
f 41/89/6 43/90/6 44/91/6 42/92/6
f 39/93/23 40/65/23 44/68/23 43/90/23
f 38/66/24 37/94/24 41/95/24 42/67/24
f 37/96/25 39/93/25 43/90/25 41/89/25
