# Blender v3.1.2 OBJ File: 'dresser.blend'
# www.blender.org
mtllib dresser.mtl
o Sidetable_Cylinder.001
v 1.406813 -0.341218 3.034663
v 1.406813 -0.341218 3.030034
v 1.405845 -0.338879 3.034663
v 1.405845 -0.338879 3.030034
v 1.403507 -0.337911 3.034663
v 1.403507 -0.337911 3.030034
v 1.401168 -0.338879 3.034663
v 1.401168 -0.338879 3.030034
v 1.400200 -0.341218 3.034663
v 1.400200 -0.341218 3.030034
v 1.401168 -0.343556 3.034663
v 1.401168 -0.343556 3.030034
v 1.403507 -0.344524 3.034663
v 1.403507 -0.344524 3.030034
v 1.405845 -0.343556 3.034663
v 1.405845 -0.343556 3.030034
v 1.410228 -0.334496 3.025834
v 1.413012 -0.341218 3.025834
v 1.403507 -0.331712 3.025834
v 1.396785 -0.334496 3.025834
v 1.394001 -0.341218 3.025834
v 1.396785 -0.347939 3.025834
v 1.403507 -0.350723 3.025834
v 1.410228 -0.347939 3.025834
v 1.410228 -0.334496 3.023726
v 1.413012 -0.341218 3.023726
v 1.403507 -0.331712 3.023726
v 1.396785 -0.334496 3.023726
v 1.394001 -0.341218 3.023726
v 1.396785 -0.347939 3.023726
v 1.403507 -0.350723 3.023726
v 1.410228 -0.347939 3.023726
v 1.407711 -0.337014 3.021494
v 1.409452 -0.341218 3.021494
v 1.403507 -0.335272 3.021494
v 1.399303 -0.337014 3.021494
v 1.397561 -0.341218 3.021494
v 1.399303 -0.345422 3.021494
v 1.403507 -0.347163 3.021494
v 1.407711 -0.345422 3.021494
v 1.408793 -0.335931 3.021494
v 1.410983 -0.341218 3.021494
v 1.403507 -0.333741 3.021494
v 1.398220 -0.335931 3.021494
v 1.396030 -0.341218 3.021494
v 1.398220 -0.346504 3.021494
v 1.403507 -0.348694 3.021494
v 1.408793 -0.346504 3.021494
v 1.408793 -0.335931 3.021814
v 1.410983 -0.341218 3.021814
v 1.403507 -0.333741 3.021814
v 1.398220 -0.335931 3.021814
v 1.396030 -0.341218 3.021814
v 1.398220 -0.346504 3.021814
v 1.403507 -0.348694 3.021814
v 1.408793 -0.346504 3.021814
v 1.407711 -0.337014 3.021814
v 1.409452 -0.341218 3.021814
v 1.403507 -0.335272 3.021814
v 1.399303 -0.337014 3.021814
v 1.397561 -0.341218 3.021814
v 1.399303 -0.345422 3.021814
v 1.403507 -0.347163 3.021814
v 1.407711 -0.345422 3.021814
v 1.333151 -0.309427 3.032040
v 1.297760 -0.275783 3.007596
v 1.305282 -0.290372 3.297896
v 1.297760 -0.275783 3.322340
v 1.403507 -0.309427 3.032040
v 1.403507 -0.275783 3.007596
v 1.403507 -0.290372 3.297896
v 1.403507 -0.275783 3.322340
v 1.403507 -0.290372 3.007596
v 1.297760 -0.290372 3.007596
v 1.297760 -0.290372 3.322340
v 1.403507 -0.290372 3.322340
v 1.403507 -0.411684 3.297896
v 1.403507 -0.381296 3.032040
v 1.333151 -0.381296 3.032040
v 1.305282 -0.411684 3.297896
v 1.403507 -0.290372 3.032040
v 1.305282 -0.290372 3.032040
v 1.403507 -0.411684 3.032040
v 1.305282 -0.411684 3.032040
v 1.403507 -0.309427 3.035063
v 1.403507 -0.381296 3.035063
v 1.335670 -0.309427 3.035063
v 1.335670 -0.381296 3.035063
v 1.305282 -0.368273 3.297896
v 1.303106 -0.411684 3.032040
v 1.305282 -0.368273 3.032040
v 1.303106 -0.411684 3.297896
v 1.303106 -0.368273 3.297896
v 1.303106 -0.368273 3.032040
v 1.473862 -0.309427 3.032040
v 1.509253 -0.275783 3.007596
v 1.501732 -0.290372 3.297896
v 1.509253 -0.275783 3.322340
v 1.509253 -0.290372 3.007596
v 1.509253 -0.290372 3.322340
v 1.473862 -0.381296 3.032040
v 1.501732 -0.411684 3.297896
v 1.501731 -0.290372 3.032040
v 1.501731 -0.411684 3.032040
v 1.471344 -0.309427 3.035063
v 1.471344 -0.381296 3.035063
v 1.501732 -0.368273 3.297896
v 1.503907 -0.411684 3.032040
v 1.501731 -0.368273 3.032040
v 1.503907 -0.411684 3.297896
v 1.503907 -0.368273 3.297896
v 1.503907 -0.368273 3.032040
v 1.335713 -0.290254 3.031930
v 1.335713 -0.336059 3.031930
v 1.301426 -0.290254 3.031930
v 1.301426 -0.336059 3.031930
v 1.335713 -0.290254 3.017797
v 1.335713 -0.336059 3.017797
v 1.301426 -0.290254 3.017797
v 1.301426 -0.336059 3.017797
v 1.322888 -0.610290 3.031930
v 1.301426 -0.610290 3.031930
v 1.301426 -0.610290 3.017797
v 1.322888 -0.610290 3.017797
v 1.471300 -0.290254 3.031930
v 1.471300 -0.336059 3.031930
v 1.505588 -0.290254 3.031930
v 1.505588 -0.336059 3.031930
v 1.471300 -0.290254 3.017797
v 1.471300 -0.336059 3.017797
v 1.505588 -0.290254 3.017797
v 1.505588 -0.336059 3.017797
v 1.484126 -0.610290 3.031930
v 1.505588 -0.610290 3.031930
v 1.505588 -0.610290 3.017797
v 1.484126 -0.610290 3.017797
v 1.335713 -0.290254 3.312575
v 1.335713 -0.336059 3.312575
v 1.301426 -0.290254 3.312575
v 1.301426 -0.336059 3.312575
v 1.335713 -0.290254 3.298442
v 1.335713 -0.336059 3.298442
v 1.301426 -0.290254 3.298442
v 1.301426 -0.336059 3.298442
v 1.323121 -0.610290 3.312575
v 1.301426 -0.610290 3.312575
v 1.301426 -0.610290 3.298442
v 1.323121 -0.610290 3.298442
v 1.471300 -0.290254 3.312575
v 1.471300 -0.336059 3.312575
v 1.505588 -0.290254 3.312575
v 1.505588 -0.336059 3.312575
v 1.471300 -0.290254 3.298442
v 1.471300 -0.336059 3.298442
v 1.505588 -0.290254 3.298442
v 1.505588 -0.336059 3.298442
v 1.483893 -0.610290 3.312575
v 1.505588 -0.610290 3.312575
v 1.505588 -0.610290 3.298442
v 1.483893 -0.610290 3.298442
vt 0.375000 0.000000
vt 0.625000 0.000000
vt 0.625000 0.250000
vt 0.375000 0.250000
vt 0.625000 0.500000
vt 0.375000 0.500000
vt 0.625000 0.750000
vt 0.375000 0.750000
vt 0.625000 1.000000
vt 0.375000 1.000000
vt 0.125000 0.500000
vt 0.125000 0.750000
vt 0.678630 0.907706
vt 0.678630 0.799720
vt -0.185048 0.799720
vt -0.185048 0.867313
vt 0.036385 0.076967
vt 0.036385 0.118601
vt 0.099608 0.118601
vt 0.099608 0.076967
vt 1.003745 1.106085
vt 0.992138 0.935854
vt -0.365041 1.092361
vt -0.357776 1.198916
vt 0.949007 0.711733
vt 0.949303 0.663802
vt 0.019270 0.658052
vt 0.018974 0.705983
vt 0.923124 0.750461
vt 0.923124 0.707362
vt 0.086850 0.707362
vt 0.086850 0.750461
vt 0.375000 0.000000
vt 0.375000 0.250000
vt 0.625000 0.250000
vt 0.625000 0.000000
vt 0.375000 0.500000
vt 0.625000 0.500000
vt 0.375000 0.750000
vt 0.625000 0.750000
vt 0.375000 1.000000
vt 0.625000 1.000000
vt 0.125000 0.500000
vt 0.125000 0.750000
vt 0.960820 0.689024
vt -0.308750 0.692186
vt -0.313140 0.791340
vt 0.953807 0.847431
vt 0.637816 0.076967
vt 0.574593 0.076967
vt 0.574593 0.118601
vt 0.637816 0.118601
vt 0.934633 0.092451
vt -0.426887 0.185281
vt -0.419622 0.291836
vt 0.946240 0.262682
vt 0.923125 0.930018
vt 0.086850 0.930018
vt 0.086850 0.973117
vt 0.923125 0.973117
vt 0.949304 0.470443
vt 0.019270 0.464692
vt 0.018974 0.512623
vt 0.949007 0.518374
vt 0.375000 0.000000
vt 0.625000 0.000000
vt 0.625000 0.250000
vt 0.375000 0.250000
vt 0.625000 0.500000
vt 0.375000 0.500000
vt 0.625000 0.750000
vt 0.375000 0.750000
vt 0.625000 1.000000
vt 0.375000 1.000000
vt 0.125000 0.500000
vt 0.125000 0.750000
vt 0.600271 0.693777
vt 0.670655 0.693777
vt 0.670655 0.130836
vt 0.626120 0.130836
vt 0.036385 0.903708
vt 0.036385 0.945341
vt 0.100295 0.945341
vt 0.100295 0.903708
vt 1.003745 1.106085
vt 0.992138 0.935854
vt -0.365120 1.091204
vt -0.357776 1.198916
vt 0.949009 0.363783
vt 0.949305 0.315853
vt 0.019272 0.310102
vt 0.018976 0.358033
vt 0.933152 0.666036
vt 0.933152 0.622938
vt 0.096877 0.622938
vt 0.096877 0.666036
vt 0.375000 0.000000
vt 0.375000 0.250000
vt 0.625000 0.250000
vt 0.625000 0.000000
vt 0.375000 0.500000
vt 0.625000 0.500000
vt 0.375000 0.750000
vt 0.625000 0.750000
vt 0.375000 1.000000
vt 0.625000 1.000000
vt 0.125000 0.500000
vt 0.125000 0.750000
vt 0.321937 0.693777
vt 0.296088 0.130836
vt 0.251553 0.130836
vt 0.251553 0.693777
vt 0.637816 0.903708
vt 0.573906 0.903708
vt 0.573906 0.945341
vt 0.637816 0.945341
vt 0.934633 0.092450
vt -0.426887 0.185281
vt -0.419543 0.292994
vt 0.946240 0.262682
vt 0.933152 0.339735
vt 0.096877 0.339735
vt 0.096877 0.382833
vt 0.933152 0.382833
vt 0.949305 0.845150
vt 0.019272 0.839399
vt 0.018976 0.887329
vt 0.949009 0.893080
vt 0.750000 0.490000
vt 0.919706 0.419706
vt 0.990000 0.250000
vt 0.919706 0.080294
vt 0.750000 0.010000
vt 0.580294 0.080294
vt 0.510000 0.250000
vt 0.580294 0.419706
vt 0.250000 0.440851
vt 0.250000 0.440851
vt 0.384952 0.384952
vt 0.384952 0.384952
vt 0.750000 1.000000
vt 0.750000 1.000000
vt 0.875000 1.000000
vt 0.875000 1.000000
vt 0.115048 0.384952
vt 0.115048 0.384952
vt 1.000000 1.000000
vt 1.000000 1.000000
vt 0.059149 0.250000
vt 0.059149 0.250000
vt 0.000000 1.000000
vt 0.000000 1.000000
vt 0.125000 1.000000
vt 0.125000 1.000000
vt 0.115048 0.115048
vt 0.115048 0.115048
vt 0.250000 1.000000
vt 0.250000 1.000000
vt 0.625000 1.000000
vt 0.625000 1.000000
vt 0.440851 0.250000
vt 0.440851 0.250000
vt 0.500000 1.000000
vt 0.500000 1.000000
vt 0.384952 0.115048
vt 0.384952 0.115048
vt 0.375000 1.000000
vt 0.375000 1.000000
vt 0.250000 0.059149
vt 0.250000 0.059149
vt 0.707800 0.489030
vt 0.707800 0.055375
vt 0.767626 0.055375
vt 0.767626 0.489030
vt 0.710321 -0.133645
vt 0.710321 1.157082
vt 0.770147 1.157082
vt 0.770147 -0.133645
vt 0.049729 0.189393
vt 0.049729 0.042439
vt 0.949689 0.042440
vt 0.949689 0.189393
vt 0.022293 0.494211
vt 0.018404 0.815209
vt 0.973817 0.826786
vt 0.977707 0.505789
vt 0.712842 0.055375
vt 0.712842 0.489030
vt 0.772668 0.489030
vt 0.772668 0.055375
vt 0.337101 0.118927
vt 0.337101 0.046918
vt 0.025586 0.046918
vt 0.047745 0.118927
vt 0.025586 0.974109
vt 0.047745 0.902099
vt 0.337101 0.974109
vt 0.337101 0.902099
vt 0.626457 0.118927
vt 0.337101 0.118927
vt 0.337101 0.902099
vt 0.626457 0.902099
vt 0.853398 1.000520
vt 0.853398 0.637182
vt 0.510447 0.637182
vt 0.367293 0.739128
vt 0.367293 0.739128
vt 0.367293 0.739128
vt 0.367293 0.739128
vt 0.486638 0.502518
vt 0.486638 0.607173
vt 1.026117 0.607173
vt 0.873050 0.502518
vt 0.843964 0.264505
vt 0.990924 0.104264
vt 0.472966 0.104264
vt 0.472966 0.264505
vt 0.861951 0.462651
vt 0.861951 0.304420
vt 0.503927 0.304420
vt 0.503927 0.746597
vt 0.000000 0.510739
vt 0.017898 0.489261
vt 0.500000 0.489261
vt 0.500000 0.510739
vt 0.500000 0.510739
vt 0.500000 0.489261
vt 0.017898 0.489261
vt 0.000000 0.510739
vt 0.949689 0.042440
vt 0.049729 0.042439
vt 0.049729 0.453100
vt 0.049729 0.189393
vt 0.949689 0.189393
vt 0.949689 0.453100
vt 0.132707 0.713628
vt 0.132707 0.739128
vt 0.132707 0.739128
vt 0.132707 0.739128
vt 0.132707 0.713628
vt 0.132707 0.739128
vt 0.132707 0.739128
vt 0.145903 0.462651
vt 0.145903 0.746597
vt 0.244619 0.489261
vt 0.755381 0.510739
vt 0.244619 0.510739
vt 0.510447 1.000520
vt 0.755381 0.489261
vt 0.767626 0.922685
vt 0.707800 0.922685
vt 0.710321 -0.133645
vt 0.770147 -0.133645
vt 0.770147 1.157082
vt 0.710321 1.157082
vt 0.049729 0.730408
vt 0.949689 0.730408
vt 0.949689 0.583455
vt 0.049729 0.583455
vt 0.981597 0.184792
vt 0.026183 0.173214
vt 0.712842 0.922685
vt 0.772668 0.922685
vt 0.626457 0.118927
vt 0.648615 0.046918
vt 0.626457 0.902099
vt 0.648615 0.974109
vt 0.167495 1.000520
vt 0.167495 0.637182
vt 0.367293 0.739128
vt 0.367293 0.739128
vt 0.367293 0.739128
vt 0.367293 0.739128
vt 0.100227 0.502518
vt -0.052840 0.607173
vt 0.101969 0.264505
vt -0.044991 0.104264
vt 1.000000 0.510739
vt 0.982102 0.489261
vt 1.000000 0.510739
vt 0.982102 0.489261
vt 0.949689 0.583455
vt 0.049729 0.583455
vt 0.049729 0.994115
vt 0.949689 0.994115
vt 0.949689 0.730408
vt 0.049729 0.730408
vt 0.132707 0.739128
vt 0.132707 0.739128
vt 0.132707 0.713628
vt 0.132707 0.713628
vt 0.132707 0.739128
vt 0.132707 0.739128
vt 0.132707 0.739128
vt 0.861951 0.746596
vt 0.244619 0.489261
vt 0.244619 0.510739
vt 0.755381 0.510739
vt 0.755381 0.489261
vt 0.047745 0.118927
vt 0.047745 0.902099
vt 0.145903 0.304420
vt 0.997539 0.032451
vt 0.872539 0.032451
vt 0.872539 0.532451
vt 0.997539 0.532451
vt 0.747539 0.032451
vt 0.747539 0.532451
vt 0.622539 0.032451
vt 0.622539 0.532451
vt 0.497539 0.032451
vt 0.497539 0.532451
vt 0.372539 0.032451
vt 0.372539 0.532451
vt 0.247539 0.032451
vt 0.247539 0.532451
vt 0.632006 0.500000
vt 0.879473 0.500000
vt 0.768328 0.768328
vt 0.593343 0.593342
vt 0.122539 0.032451
vt 0.122539 0.532451
vt -0.002461 0.032451
vt -0.002461 0.532451
vt 0.500000 0.520874
vt 0.500000 0.605025
vt 0.768328 0.605025
vt 0.768328 0.520874
vt 0.406658 0.406658
vt 0.231672 0.231672
vt 0.500000 0.120527
vt 0.500000 0.367994
vt 0.500000 0.632006
vt 0.500000 0.879473
vt 0.231672 0.768328
vt 0.406658 0.593342
vt 0.593343 0.406658
vt 0.768328 0.231672
vt 0.367995 0.500000
vt 0.120526 0.500000
vt 0.352862 0.550838
vt 0.411527 0.550838
vt 0.474825 0.398025
vt 0.433341 0.356543
vt 0.500000 0.520874
vt 0.500000 0.605025
vt 0.768328 0.605025
vt 0.768328 0.520874
vt 0.768328 0.520874
vt 0.768328 0.605025
vt 0.500000 0.605025
vt 0.500000 0.520874
vt 0.231672 0.520874
vt 0.231672 0.605025
vt 0.231672 0.520874
vt 0.231672 0.605025
vt 0.500000 0.605025
vt 0.500000 0.520874
vt 0.231672 0.605025
vt 0.231672 0.520874
vt 0.506118 0.672355
vt 0.627637 0.722690
vt 0.749155 0.672355
vt 0.799490 0.550838
vt 0.749155 0.429319
vt 0.627637 0.378985
vt 0.506118 0.429319
vt 0.455784 0.550838
vt 0.627637 0.276063
vt 0.627637 0.334727
vt 0.780450 0.398025
vt 0.821932 0.356543
vt 0.902412 0.550838
vt 0.843746 0.550838
vt 0.780449 0.703650
vt 0.821932 0.745134
vt 0.627637 0.825613
vt 0.627637 0.766947
vt 0.474825 0.703650
vt 0.433341 0.745134
vt 0.455784 0.550838
vt 0.411527 0.550838
vt 0.474825 0.703650
vt 0.506118 0.672355
vt 0.627637 0.766947
vt 0.627637 0.722690
vt 0.780449 0.703650
vt 0.749155 0.672355
vt 0.843746 0.550838
vt 0.799490 0.550838
vt 0.780450 0.398025
vt 0.749155 0.429319
vt 0.627637 0.334727
vt 0.627637 0.378985
vt 0.474825 0.398025
vt 0.506118 0.429319
vn 0.0000 0.0000 -1.0000
vn 1.0000 0.0000 0.0000
vn 0.0000 0.0000 1.0000
vn -1.0000 0.0000 0.0000
vn 0.0000 -1.0000 0.0000
vn 0.0000 1.0000 0.0000
vn -0.9989 0.0467 0.0000
vn 0.9989 0.0467 0.0000
vn -0.9989 0.0459 0.0000
vn 0.9989 0.0459 0.0000
vn -0.7764 0.0000 0.6303
vn -0.5944 0.0000 0.8042
vn -0.4204 -0.4203 0.8041
vn -0.5490 -0.5490 0.6302
vn 0.0000 0.1311 0.9914
vn 0.0000 0.7764 0.6303
vn 0.5490 0.5489 0.6303
vn 0.0929 0.0926 0.9914
vn -0.5490 0.5490 0.6302
vn -0.4203 0.4203 0.8042
vn 0.7764 -0.0002 0.6303
vn 0.1312 -0.0002 0.9914
vn -0.0000 0.5944 0.8042
vn 0.5490 -0.5490 0.6302
vn 0.0928 -0.0928 0.9914
vn 0.5490 0.5490 0.6302
vn 0.4203 0.4203 0.8042
vn -0.0000 -0.7764 0.6303
vn 0.0000 -0.1311 0.9914
vn -0.0929 0.0926 0.9914
vn -0.5490 0.5489 0.6303
vn 0.0000 -0.5944 0.8042
vn -0.1312 -0.0002 0.9914
vn -0.7764 -0.0002 0.6303
vn 0.4204 -0.4203 0.8041
vn -0.0928 -0.0928 0.9914
vn 0.5944 0.0000 0.8041
vn 0.7764 0.0000 0.6303
vn 0.0000 0.7071 -0.7071
vn 0.5774 0.5774 -0.5774
vn 0.5774 -0.5774 -0.5774
vn -0.0000 -0.7071 -0.7071
vn 0.5774 0.5774 0.5774
vn 0.5774 -0.5774 0.5774
vn 0.7071 0.0000 0.7071
vn -0.0000 -0.7071 0.7071
vn -0.0000 0.7071 0.7071
vn 0.0000 0.8944 0.4472
vn 0.0000 -0.3162 -0.9487
vn -0.6709 0.4871 0.5591
vn -0.4377 0.8218 0.3648
vn -0.4377 -0.8218 0.3647
vn -0.6710 -0.4871 0.5591
vn -0.5774 -0.5774 -0.5774
vn -0.5774 0.5774 -0.5774
vn -0.5774 -0.5774 0.5774
vn -0.5774 0.5774 0.5774
vn -0.7071 0.0000 0.7071
vn -0.5773 0.5773 0.5774
vn 0.6709 0.4871 0.5591
vn 0.4377 0.8218 0.3648
vn 0.6710 -0.4871 0.5591
vn 0.4377 -0.8218 0.3647
vn -0.7071 -0.7071 0.0000
vn 0.7071 -0.7071 0.0000
vn 0.7071 0.7071 0.0000
vn -0.0000 -0.5609 -0.8279
vn -0.0000 -0.9044 -0.4268
vn -0.6395 -0.6395 -0.4268
vn -0.3966 -0.3966 -0.8279
vn -0.7071 0.7071 0.0000
vn 0.9044 -0.0000 -0.4268
vn 0.9426 0.0000 0.3341
vn 0.6665 -0.6665 0.3341
vn 0.6395 -0.6395 -0.4268
vn 0.3966 0.3966 -0.8279
vn 0.6395 0.6395 -0.4268
vn 0.5609 -0.0000 -0.8279
vn -0.5609 -0.0000 -0.8279
vn -0.9044 -0.0000 -0.4268
vn -0.6395 0.6395 -0.4268
vn -0.3966 0.3966 -0.8279
vn 0.3966 -0.3966 -0.8279
vn 0.0000 0.5609 -0.8279
vn 0.0000 0.9044 -0.4268
vn -0.9426 0.0000 0.3341
vn -0.6665 0.6665 0.3341
vn 0.0000 -0.9426 0.3341
vn -0.6665 -0.6665 0.3341
vn 0.0000 0.9426 0.3341
vn 0.6665 0.6665 0.3341
usemtl Material.002
s off
f 113/1/1 114/2/1 116/3/1 115/4/1
f 115/4/2 116/3/2 120/5/2 119/6/2
f 119/6/3 120/5/3 118/7/3 117/8/3
f 117/8/4 118/7/4 114/9/4 113/10/4
f 115/11/5 119/6/5 117/8/5 113/12/5
f 118/13/3 120/14/3 123/15/3 124/16/3
f 123/17/6 122/18/6 121/19/6 124/20/6
f 116/21/1 114/22/1 121/23/1 122/24/1
f 114/25/7 118/26/7 124/27/7 121/28/7
f 120/29/2 116/30/2 122/31/2 123/32/2
f 125/33/1 127/34/1 128/35/1 126/36/1
f 127/34/4 131/37/4 132/38/4 128/35/4
f 131/37/3 129/39/3 130/40/3 132/38/3
f 129/39/2 125/41/2 126/42/2 130/40/2
f 127/43/5 125/44/5 129/39/5 131/37/5
f 130/45/3 136/46/3 135/47/3 132/48/3
f 135/49/6 136/50/6 133/51/6 134/52/6
f 128/53/1 134/54/1 133/55/1 126/56/1
f 126/57/8 133/58/8 136/59/8 130/60/8
f 132/61/4 135/62/4 134/63/4 128/64/4
f 137/65/1 138/66/1 140/67/1 139/68/1
f 139/68/2 140/67/2 144/69/2 143/70/2
f 143/70/3 144/69/3 142/71/3 141/72/3
f 141/72/4 142/71/4 138/73/4 137/74/4
f 139/75/5 143/70/5 141/72/5 137/76/5
f 142/77/3 144/78/3 147/79/3 148/80/3
f 147/81/6 146/82/6 145/83/6 148/84/6
f 140/85/1 138/86/1 145/87/1 146/88/1
f 138/89/9 142/90/9 148/91/9 145/92/9
f 144/93/2 140/94/2 146/95/2 147/96/2
f 149/97/1 151/98/1 152/99/1 150/100/1
f 151/98/4 155/101/4 156/102/4 152/99/4
f 155/101/3 153/103/3 154/104/3 156/102/3
f 153/103/2 149/105/2 150/106/2 154/104/2
f 151/107/5 149/108/5 153/103/5 155/101/5
f 154/109/3 160/110/3 159/111/3 156/112/3
f 159/113/6 160/114/6 157/115/6 158/116/6
f 152/117/1 158/118/1 157/119/1 150/120/1
f 150/121/10 157/122/10 160/123/10 154/124/10
f 156/125/4 159/126/4 158/127/4 152/128/4
s 1
f 1/129/3 3/130/3 5/131/3 7/132/3 9/133/3 11/134/3 13/135/3 15/136/3
f 34/137/11 58/138/12 57/139/13 33/140/14
f 43/141/15 51/142/16 49/143/17 41/144/18
f 40/145/19 64/146/20 58/138/12 34/137/11
f 41/144/18 49/143/17 50/147/21 42/148/22
f 39/149/16 63/150/23 64/146/20 40/145/19
f 42/151/22 50/152/21 56/153/24 48/154/25
f 38/155/26 62/156/27 63/150/23 39/149/16
f 48/154/25 56/153/24 55/157/28 47/158/29
f 44/159/30 52/160/31 51/142/16 43/141/15
f 33/140/14 57/139/13 59/161/32 35/162/28
f 45/163/33 53/164/34 52/160/31 44/159/30
f 35/162/28 59/161/32 60/165/35 36/166/24
f 46/167/36 54/168/14 53/164/34 45/163/33
f 36/166/24 60/165/35 61/169/37 37/170/38
f 47/158/29 55/157/28 54/168/14 46/167/36
f 37/170/38 61/169/37 62/156/27 38/155/26
f 76/171/39 75/172/40 68/173/41 72/174/42
f 75/175/40 74/176/43 66/177/44 68/178/41
f 93/179/41 92/180/40 90/181/43 94/182/45
f 72/183/42 68/184/41 66/185/44 70/186/46
f 74/187/43 73/188/47 70/189/46 66/190/44
f 81/191/6 73/192/47 74/193/43 82/194/6
f 82/194/6 74/193/43 75/195/40 67/196/6
f 67/196/6 75/195/40 76/197/39 71/198/6
f 104/199/48 83/200/6 77/201/6 102/202/39
f 87/203/3 88/204/3 86/205/3
f 80/206/39 92/207/40 93/208/41 89/209/49
f 69/210/3 81/211/3 82/212/3 65/213/3
f 79/214/3 84/215/3 83/216/3 78/217/3
f 107/218/49 102/219/39 77/220/1 71/221/1
f 65/222/50 87/223/51 85/224/6 69/225/6
f 78/226/5 86/227/5 88/228/52 79/229/53
f 84/230/48 90/181/43 92/180/40 80/231/39
f 67/232/2 89/233/2 91/234/2 82/235/2
f 89/233/49 93/179/41 94/182/5 91/234/5
f 65/236/3 82/237/3 91/238/3 84/239/3 79/240/3
f 91/238/3 94/241/45 90/242/43 84/239/48
f 71/221/1 89/243/49 67/244/1
f 88/245/52 65/246/50 79/247/53
f 87/203/3 86/205/3 85/248/3
f 88/245/52 87/249/51 65/246/50
f 76/171/39 72/174/42 98/250/54 100/251/55
f 100/252/55 98/253/54 96/254/56 99/255/57
f 111/256/54 112/257/58 108/258/59 110/259/55
f 72/183/42 70/186/46 96/260/56 98/261/54
f 99/262/57 96/263/56 70/189/46 73/188/47
f 81/191/6 103/264/6 99/265/57 73/192/47
f 103/264/6 97/266/6 100/267/55 99/265/57
f 97/266/6 71/198/6 76/197/39 100/267/55
f 105/268/3 86/205/3 106/269/3
f 102/270/39 107/271/49 111/272/54 110/273/55
f 69/210/3 95/274/3 103/275/3 81/211/3
f 101/276/3 78/217/3 83/216/3 104/277/3
f 95/278/60 69/225/6 85/224/6 105/279/61
f 78/226/5 101/280/62 106/281/63 86/227/5
f 104/282/48 102/283/39 110/259/55 108/258/59
f 97/284/4 103/285/4 109/286/4 107/287/4
f 107/271/49 109/288/5 112/289/5 111/272/54
f 95/290/3 101/291/3 104/292/3 109/288/3 103/293/3
f 109/288/3 104/292/48 108/294/59 112/289/58
f 71/221/1 97/295/1 107/218/49
f 106/296/63 101/297/62 95/298/60
f 105/268/3 85/248/3 86/205/3
f 106/296/63 95/298/60 105/299/61
f 77/201/6 83/200/6 84/300/48 80/301/39
f 77/220/1 80/302/39 89/243/49 71/221/1
usemtl Material.003
f 1/303/4 3/304/64 4/305/64 2/306/4
f 3/304/64 5/307/5 6/308/5 4/305/64
f 5/307/5 7/309/65 8/310/65 6/308/5
f 7/309/65 9/311/2 10/312/2 8/310/65
f 9/311/2 11/313/66 12/314/66 10/312/2
f 11/313/66 13/315/6 14/316/6 12/314/66
f 6/317/67 19/318/68 17/319/69 4/320/70
f 13/315/6 15/321/71 16/322/71 14/316/6
f 15/321/71 1/323/4 2/324/4 16/322/71
f 21/325/72 29/326/73 28/327/74 20/328/75
f 12/329/76 22/330/77 21/331/72 10/332/78
f 2/333/79 18/334/80 24/335/81 16/336/82
f 4/320/70 17/319/69 18/334/80 2/333/79
f 8/337/83 20/338/75 19/318/68 6/317/67
f 14/339/84 23/340/85 22/330/77 12/329/76
f 10/332/78 21/331/72 20/338/75 8/337/83
f 16/336/82 24/335/81 23/340/85 14/339/84
f 26/341/86 42/342/22 48/343/25 32/344/87
f 19/345/68 27/346/88 25/347/89 17/348/69
f 24/349/81 32/350/87 31/351/90 23/352/85
f 22/353/77 30/354/91 29/326/73 21/325/72
f 20/355/75 28/356/74 27/346/88 19/345/68
f 17/348/69 25/347/89 26/357/86 18/358/80
f 18/358/80 26/357/86 32/359/87 24/360/81
f 23/352/85 31/351/90 30/354/91 22/353/77
f 33/361/14 35/362/28 36/363/24 37/364/38 38/365/26 39/366/16 40/367/19 34/368/11
f 31/369/90 47/370/29 46/371/36 30/372/91
f 29/373/73 45/374/33 44/375/30 28/376/74
f 27/377/88 43/378/15 41/379/18 25/380/89
f 32/344/87 48/343/25 47/370/29 31/369/90
f 30/372/91 46/371/36 45/374/33 29/373/73
f 28/376/74 44/375/30 43/378/15 27/377/88
f 25/380/89 41/379/18 42/342/22 26/341/86
f 58/381/12 50/382/21 49/383/17 57/384/13
f 57/384/13 49/383/17 51/385/16 59/386/32
f 59/386/32 51/385/16 52/387/31 60/388/35
f 60/388/35 52/387/31 53/389/34 61/390/37
f 61/390/37 53/389/34 54/391/14 62/392/27
f 62/392/27 54/391/14 55/393/28 63/394/23
f 63/394/23 55/393/28 56/395/24 64/396/20
f 64/396/20 56/395/24 50/382/21 58/381/12
